<mxfile host="65bd71144e">
    <diagram id="YhAJBo5eRqrpQFUtm8kv" name="Page-1">
        <mxGraphModel dx="211" dy="206" grid="1" gridSize="10" guides="1" tooltips="1" connect="1" arrows="1" fold="1" page="1" pageScale="1" pageWidth="1100" pageHeight="850" math="0" shadow="0">
            <root>
                <mxCell id="0"/>
                <mxCell id="1" parent="0"/>
                <mxCell id="114" value="" style="ellipse;whiteSpace=wrap;html=1;aspect=fixed;fillColor=#000000;" parent="1" vertex="1">
                    <mxGeometry x="350" y="402.5" width="3.75" height="3.75" as="geometry"/>
                </mxCell>
                <mxCell id="118" value="" style="ellipse;whiteSpace=wrap;html=1;aspect=fixed;fillColor=#000000;" parent="1" vertex="1">
                    <mxGeometry x="328.13" y="383.75" width="3.75" height="3.75" as="geometry"/>
                </mxCell>
                <mxCell id="98" value="" style="ellipse;whiteSpace=wrap;html=1;aspect=fixed;fillColor=#FF0000;" parent="1" vertex="1">
                    <mxGeometry x="328.75" y="403.75" width="2.5" height="2.5" as="geometry"/>
                </mxCell>
                <mxCell id="99" value="" style="shape=image;verticalLabelPosition=bottom;labelBackgroundColor=default;verticalAlign=top;aspect=fixed;imageAspect=0;image=data:image/png,iVBORw0KGgoAAAANSUhEUgAAAgAAAAIACAIAAAB7GkOtAAAAAXNSR0IArs4c6QAAE/ZJREFUeAHt1dGNxUAIA8DXf9O5v6sAS2t5UgCCWWJ+Px8BAgQIECBAgAABAgQIECBAgAABAgQIECBAgAABAgQIECBAgAABAgQIECBAgAABAgQIECBAgAABAgQIECBAgAABAgQIECBAgAABAgQIECBAgAABAgQIECBAgAABAgQIECBAgAABAgQIECBAgAABAgQIECBAgAABAgQIECBAgAABAgQIECBAgAABAgQIECBAgAABAgQIECBAgAABAgQIECBAgAABAgQIECBAgAABAgQIECBAgAABAgQIECBAgAABAgQIECBAgAABAgQIECBAgAABAgQIECBAgAABAgQIECBAgAABAgQIECBAgAABAgQIECBAgAABAgQIECBAgAABAgQIECBAgAABAgQIECBAgAABAgQIECBAgAABAgQIECBAgAABAgQIECBAgAABAgQIECBAgAABAgQIECBAgAABAgQIECBAgAABAgQIECBAgAABAgQIECBAgAABAgQIECBAgAABAgQIECBAgAABAgQIECBAgAABAgQIECBAgAABAgQIECBAgAABAgQIECBAgAABAgQIECBAgAABAgQIECBAgAABAgQIECBAgAABAgQIECBAgAABAgQIECBAgAABAgQIECBAgAABAgQIECBAgAABAgQIECBAgAABAgQIECBAgAABAgQIECBAgAABAgQIECBAgAABAgQIECBAgAABAgQIECBAgAABAgQIECBAgAABAgQIECBAgAABAgQIECBAgAABAgQIECBAgAABAgQIECBAgAABAgQIECBAgAABAgQIECBAgEBE4PMNC0RWSlECBFoEhtPP6F/LluqTAIGIgBRcFoislKIECLQILMef2Vu2VJ8ECEQEhOCyQGSlFCVAoEVgOf7M3rKl+iRAICIgBJcFIiulKAECLQLL8Wf2li3VJwECEQEhuCwQWSlFCRBoEViOP7O3bKk+CRCICAjBZYHISilKgECLwHL8mb1lS/VJgEBEQAguC0RWSlECBFoEluPP7C1bqk8CBCICQnBZILJSihIg0CKwHH9mb9lSfRIgEBEQgssCkZVSlACBFoHl+DN7y5bqkwCBiIAQXBaIrJSiBAi0CCzHn9lbtlSfBAhEBITgskBkpRQlQKBFYDn+zN6ypfokQCAiIASXBSIrpSgBAi0Cy/Fn9pYt1ScBAhEBIbgsEFkpRQkQaBFYjj+zt2ypPgkQiAgIwWWByEopSoBAi8By/Jm9ZUv1SYBAREAILgtEVkpRAgRaBJbjz+wtW6pPAgQiAkJwWSCyUooSINAisBx/Zm/ZUn0SIBAREILLApGVUpQAgRaB5fgze8uW6pMAgYiAEFwWiKyUogQItAgsx5/ZW7ZUnwQIRASE4LJAZKUUJUCgRWA5/szesqX6JEAgIiAElwUiK6UoAQItAsvxZ/aWLdUnAQIRASG4LBBZKUUJEGgRWI4/s7dsqT4JEIgICMFlgchKKUqAQIvAcvyZvWVL9UmAQERACC4LRFZKUQIEWgSW48/sLVuqTwIEIgJCcFkgslKKEiDQIrAcf2Zv2VJ9EiAQERCCywKRlVKUAIEWgeX4M3vLluqTAIGIgBBcFoislKIECLQILMef2Vu2VJ8ECEQEhOCyQGSlFCVAoEVgOf7M3rKl+iRAICIgBJcFIiulKAECLQLL8Wf2li3VJwECEQEhuCwQWSlFCRBoEViOP7O3bKk+CRCICAjBZYHISilKgECLwHL8mb1lS/VJgEBEQAguC0RWSlECBFoEluPP7C1bqk8CBCICQnBZILJSihIg0CKwHH9mb9lSfRIgEBEQgssCkZVSlACBFoHl+DN7y5bqkwCBiIAQXBaIrJSiBAi0CCzHn9lbtlSfBAhEBITgskBkpRQlQKBFYDn+zN6ypfokQCAiIASXBSIrpSgBAi0Cy/Fn9pYt1ScBAhEBIbgsEFkpRQkQaBFYjj+zt2ypPgkQiAgIwWWByEopSoBAi8By/Jm9ZUv1SYBAREAILgtEVkpRAgRaBJbjz+wtW6pPAgQiAkJwWSCyUooSINAisBx/Zm/ZUn0SIBAREILLApGVUpQAgRaB5fgze8uW6pMAgYiAEFwWiKyUogQItAgsx5/ZW7ZUnwQIRASE4LJAZKUUJUCAQIXAcvp/31fxRpokQIBARMABiLAqSoAAgfcFHID330iHBAgQiAg4ABFWRQkQIPC+gAPw/hvpkAABAhEBByDCqigBAgTeF3AA3n8jHRIgQCAi4ABEWBUlQIDA+wIOwPtvpEMCBAhEBByACKuiBAgQeF/AAXj/jXRIgACBiIADEGFVlAABAu8LOADvv5EOCRAgEBFwACKsihIgQOB9AQfg/TfSIQECBCICDkCEVVECBAi8L+AAvP9GOiRAgEBEwAGIsCpKgACB9wUcgPffSIcECBCICDgAEVZFCRAg8L6AA/D+G+mQAAECEQEHIMKqKAECBN4XcADefyMdEiBAICLgAERYFSVAgMD7Ag7A+2+kQwIECEQEHIAIq6IECBB4X8ABeP+NdEiAAIGIgAMQYVWUAAEC7ws4AO+/kQ4JECAQEXAAIqyKEiBA4H0BB+D9N9IhAQIEIgIOQIRVUQIECLwv4AC8/0Y6JECAQETAAYiwKkqAAIH3BRyA999IhwQIEIgIOAARVkUJECDwvoAD8P4b6ZAAAQIRAQcgwqooAQIE3hdwAN5/Ix0SIEAgIuAARFgVJUCAwPsCDsD7b6RDAgQIRAQcgAirogQIEHhfwAF4/410SIAAgYiAAxBhVZQAAQLvCzgA77+RDgkQIBARcAAirIoSIEDgfQEH4P030iEBAgQiAg5AhFVRAgQIvC/gALz/RjokQIBARMABiLAqSoAAgfcFHID330iHBAgQiAg4ABFWRQkQIPC+gAPw/hvpkAABAhEBByDCqigBAgTeF3AA3n8jHRIgQCAi4ABEWBUlQIDA+wIOwPtvpEMCBAhEBByACKuiBAgQeF/AAXj/jXRIgACBiIADEGFVlAABAu8LOADvv5EOCRAgEBFwACKsihIgQOB9AQfg/TfSIQECBCICDkCEVVECBAi8L+AAvP9GOiRAgEBEwAGIsCpKgACB9wUcgPffSIcECBCICDgAEVZFCRAg8L6AA/D+G+mQAAECEQEHIMKqKAECBN4XcADefyMdEiBAICLgAERYFSVAgMD7Ag7A+2+kQwIECEQEHIAIq6IECBB4X8ABeP+NdEiAAIGIgAMQYVWUAAEC7ws4AO+/kQ4JECAQEXAAIqyKEiBA4H0BB+D9N9IhAQIEIgIOQIRVUQIECLwv4AC8/0Y6JECAQETAAYiwKkqAAIH3BRyA999IhwQIEIgIOAARVkUJECDwvoAD8P4b6ZAAgZTAeAIan8CyQCpW1G0RWN5+sxMYF2iJKX2mBMZ/AOMTWBZIxYq6LQLL2292AuMCLTGlz5TA+A9gfALLAqlYUbdFYHn7zU5gXKAlpvSZEhj/AYxPYFkgFSvqtggsb7/ZCYwLtMSUPlMC4z+A8QksC6RiRd0WgeXtNzuBcYGWmNJnSmD8BzA+gWWBVKyo2yKwvP1mJzAu0BJT+kwJjP8AxiewLJCKFXVbBJa33+wExgVaYkqfKYHxH8D4BJYFUrGibovA8vabncC4QEtM6TMlMP4DGJ/AskAqVtRtEVjefrMTGBdoiSl9pgTGfwDjE1gWSMWKui0Cy9tvdgLjAi0xpc+UwPgPYHwCywKpWFG3RWB5+81OYFygJab0mRIY/wGMT2BZIBUr6rYILG+/2QmMC7TElD5TAuM/gPEJLAukYkXdFoHl7Tc7gXGBlpjSZ0pg/AcwPoFlgVSsqNsisLz9ZicwLtASU/pMCYz/AMYnsCyQihV1WwSWt9/sBMYFWmJKnymB8R/A+ASWBVKxom6LwPL2m53AuEBLTOkzJTD+AxifwLJAKlbUbRFY3n6zExgXaIkpfaYExn8A4xNYFkjFirotAsvbb3YC4wItMaXPlMD4D2B8AssCqVhRt0VgefvNTmBcoCWm9JkSGP8BjE9gWSAVK+q2CCxvv9kJjAu0xJQ+UwLjP4DxCSwLpGJF3RaB5e03O4FxgZaY0mdKYPwHMD6BZYFUrKjbIrC8/WYnMC7QElP6TAmM/wDGJ7AskIoVdVsElrff7ATGBVpiSp8pgfEfwPgElgVSsaJui8Dy9pudwLhAS0zpMyUw/gMYn8CyQCpW1G0RWN5+sxMYF2iJKX2mBMZ/AOMTWBZIxYq6LQLL2292AuMCLTGlz5TA+A9gfALLAqlYUbdFYHn7zU5gXKAlpvSZEhj/AYxPYFkgFSvqtggsb7/ZCYwLtMSUPlMC4z+A8QksC6RiRd0WgeXtNzuBcYGWmNJnSmD8BzA+gWWBVKyo2yKwvP1mJzAu0BJT+kwJjP8AxiewLJCKFXVbBJa33+wExgVaYkqfKYHxH8D4BJYFUrGibovA8vabncC4QEtM6TMlMP4DGJ/AskAqVtRtEVjefrMTGBdoiSl9pgTGfwDjE1gWSMWKui0Cy9tvdgLjAi0xpc+UwPgPYHwCywKpWFG3RWB5+81OYFygJab0mRIY/wGMT2BZIBUr6rYILG+/2QmMC7TElD5TAuM/gPEJLAukYkXdFoHl7Tc7gXGBlpjSZ0pg/AcwPoFlgVSsqNsisLz9ZicwLtASU/pMCYz/AMYnsCyQihV1WwSWt9/sBMYFWmJKnymB8R/A+ASWBVKxom6LwPL2m53AuEBLTOkzJTD+AxifwLJAKlbUbRFY3n6zExgXaIkpfaYExn8A4xNYFkjFirotAsvbb3YC4wItMaXPlMD4D2B8AssCqVhRt0VgefvNTmBcoCWm9EmAwL3AePx933dvqiIBAgQqBByAimfSJAECBO4FHIB7UxUJECBQIeAAVDyTJgkQIHAv4ADcm6pIgACBCgEHoOKZNEmAAIF7AQfg3lRFAgQIVAg4ABXPpEkCBAjcCzgA96YqEiBAoELAAah4Jk0SIEDgXsABuDdVkQABAhUCDkDFM2mSAAEC9wIOwL2pigQIEKgQcAAqnkmTBAgQuBdwAO5NVSRAgECFgANQ8UyaJECAwL2AA3BvqiIBAgQqBByAimfSJAECBO4FHIB7UxUJECBQIeAAVDyTJgkQIHAv4ADcm6pIgACBCgEHoOKZNEmAAIF7AQfg3lRFAgQIVAg4ABXPpEkCBAjcCzgA96YqEiBAoELAAah4Jk0SIEDgXsABuDdVkQABAhUCDkDFM2mSAAEC9wIOwL2pigQIEKgQcAAqnkmTBAgQuBdwAO5NVSRAgECFgANQ8UyaJECAwL2AA3BvqiIBAgQqBByAimfSJAECBO4FHIB7UxUJECBQIeAAVDyTJgkQIHAv4ADcm6pIgACBCgEHoOKZNEmAAIF7AQfg3lRFAgQIVAg4ABXPpEkCBAjcCzgA96YqEiBAoELAAah4Jk0SIEDgXsABuDdVkQABAhUCDkDFM2mSAAEC9wIOwL2pigQIEKgQcAAqnkmTBAgQuBdwAO5NVSRAgECFgANQ8UyaJECAwL2AA3BvqiIBAgQqBByAimfSJAECBO4FHIB7UxUJECBQIeAAVDyTJgkQIHAv4ADcm6pIgACBCgEHoOKZNEmAAIF7AQfg3lRFAgQIVAg4ABXPpEkCBAjcCzgA96YqEiBAoELAAah4Jk0SIEDgXsABuDdVkQABAhUCDkDFM2mSAAEC9wIOwL2pigQIEKgQcAAqnkmTBAgQuBdwAO5NVSRAgECFgANQ8UyaJECAwL2AA3BvqiIBAgQqBByAimfSJAECBO4FHIB7UxUJECBQIeAAVDyTJgkQIHAv4ADcm6pIgACBCgEHoOKZNEmAAIF7AQfg3lRFAgQIVAg4ABXPpEkCBAjcCzgA96YqEiBAoELAAah4Jk0SIEDgXsABuDdVkQABAhUCDkDFM2mSAAEC9wIOwL2pigQIEKgQcAAqnkmTBAgQuBdwAO5NVSRAgECFgANQ8UyaJECAwL2AA3BvqiIBAgQqBByAimfSJAECBO4FHIB7UxUJECBQIeAAVDyTJgkQIHAv4ADcm6pIgAABAgQIECBAgAABAgQIECBAgAABAgQIECBAgAABAgQIECBAgAABAgQIECBAgAABAgQIECBAgAABAgQIECBAgAABAgQIECBAgAABAgQIECBAgAABAgQIECBAgAABAgQIECBAgAABAgQIECBAgAABAgQIECBAgAABAgQIECBAgAABAgQIECBAgAABAgQIECBAgAABAgQIECBAgAABAgQIECBAgAABAgQIECBAgAABAgQIECBAgAABAgQIECBAgAABAgQIECBAgAABAgQIECBAgAABAgQIECBAgAABAgQIECBAgAABAgQIECBAgAABAgQIECBAgAABAgQIECBAgAABAgQIECBAgAABAgQIECBAgAABAgQIECBAgAABAgQIECBAgAABAgQIECBAgAABAgQIECBAgAABAgQIECBAgAABAgQIECBAgAABAgQIECBAgAABAgQIECBAgAABAgQIECBAgAABAgQIECBAgAABAgQIECBAgAABAgQIECBAgAABAgQIECBAgAABAgQIECBAgAABAgQIECBAgAABAgQIECBAgAABAgQIECBAgAABAgQIECBAgAABAgQIECBAgAABAgQIECBAgAABAgQIECBAgAABAgQIECBAgAABAgQIECBAgAABAgQIECBAgAABAgQIECBAgAABAgQIECBAgAABAgQIECBAgAABAgQIECBAgAABAgQIECBAgAABAgQIECBAgAABAgQIECBAgAABAgQIECBAgAABAgQIECBAgACBf4E/c9/RhEAtr8kAAAAASUVORK5CYII=;direction=south;rotation=-90;" parent="1" vertex="1">
                    <mxGeometry x="290" y="365" width="80" height="80" as="geometry"/>
                </mxCell>
                <mxCell id="100" value="0" style="text;html=1;align=center;verticalAlign=middle;whiteSpace=wrap;rounded=0;" parent="1" vertex="1">
                    <mxGeometry x="260" y="340" width="60" height="20" as="geometry"/>
                </mxCell>
                <mxCell id="101" value="" style="ellipse;whiteSpace=wrap;html=1;aspect=fixed;fillColor=#FF0000;" parent="1" vertex="1">
                    <mxGeometry x="285" y="360" width="10" height="10" as="geometry"/>
                </mxCell>
                <mxCell id="102" value="" style="ellipse;whiteSpace=wrap;html=1;aspect=fixed;fillColor=#00FF00;" parent="1" vertex="1">
                    <mxGeometry x="285" y="440" width="10" height="10" as="geometry"/>
                </mxCell>
                <mxCell id="103" value="" style="ellipse;whiteSpace=wrap;html=1;aspect=fixed;fillColor=#FFFF00;" parent="1" vertex="1">
                    <mxGeometry x="365" y="440" width="10" height="10" as="geometry"/>
                </mxCell>
                <mxCell id="104" value="" style="ellipse;whiteSpace=wrap;html=1;aspect=fixed;fillColor=#FF8000;" parent="1" vertex="1">
                    <mxGeometry x="365" y="360" width="10" height="10" as="geometry"/>
                </mxCell>
                <mxCell id="105" value="1" style="text;html=1;align=center;verticalAlign=middle;whiteSpace=wrap;rounded=0;" parent="1" vertex="1">
                    <mxGeometry x="340" y="340" width="60" height="20" as="geometry"/>
                </mxCell>
                <mxCell id="106" value="3" style="text;html=1;align=center;verticalAlign=middle;whiteSpace=wrap;rounded=0;" parent="1" vertex="1">
                    <mxGeometry x="260" y="450" width="60" height="20" as="geometry"/>
                </mxCell>
                <mxCell id="107" value="2" style="text;html=1;align=center;verticalAlign=middle;whiteSpace=wrap;rounded=0;" parent="1" vertex="1">
                    <mxGeometry x="340" y="450" width="60" height="20" as="geometry"/>
                </mxCell>
                <mxCell id="108" value="" style="ellipse;whiteSpace=wrap;html=1;aspect=fixed;fillColor=#0000FF;" parent="1" vertex="1">
                    <mxGeometry x="325" y="400" width="10" height="10" as="geometry"/>
                </mxCell>
                <mxCell id="109" value="" style="ellipse;whiteSpace=wrap;html=1;aspect=fixed;fillColor=light-dark(#00FFFF,#FF9090);" parent="1" vertex="1">
                    <mxGeometry x="365" y="399.38" width="10" height="10" as="geometry"/>
                </mxCell>
                <mxCell id="110" value="" style="endArrow=classic;html=1;entryX=0.5;entryY=0;entryDx=0;entryDy=0;strokeColor=#FF00FF;" parent="1" edge="1">
                    <mxGeometry width="50" height="50" relative="1" as="geometry">
                        <mxPoint x="329.83" y="403.75" as="sourcePoint"/>
                        <mxPoint x="329.83" y="365" as="targetPoint"/>
                    </mxGeometry>
                </mxCell>
                <mxCell id="113" value="" style="endArrow=none;html=1;strokeColor=#FF00FF;exitX=0;exitY=0;exitDx=0;exitDy=0;entryX=1;entryY=1;entryDx=0;entryDy=0;" parent="1" source="114" target="118" edge="1">
                    <mxGeometry width="50" height="50" relative="1" as="geometry">
                        <mxPoint x="348.75" y="403.75" as="sourcePoint"/>
                        <mxPoint x="398.53553390593277" y="388.5355339059327" as="targetPoint"/>
                        <Array as="points">
                            <mxPoint x="350" y="387"/>
                        </Array>
                    </mxGeometry>
                </mxCell>
                <mxCell id="122" value="" style="endArrow=none;html=1;exitX=0.5;exitY=0.375;exitDx=0;exitDy=0;exitPerimeter=0;strokeColor=#FF00FF;entryX=0.984;entryY=0.483;entryDx=0;entryDy=0;entryPerimeter=0;" parent="1" source="108" target="121" edge="1">
                    <mxGeometry width="50" height="50" relative="1" as="geometry">
                        <mxPoint x="330" y="404" as="sourcePoint"/>
                        <mxPoint x="354" y="404" as="targetPoint"/>
                    </mxGeometry>
                </mxCell>
                <mxCell id="121" value="" style="ellipse;whiteSpace=wrap;html=1;aspect=fixed;fillColor=#000000;" parent="1" vertex="1">
                    <mxGeometry x="328.13" y="403.13" width="3.75" height="3.75" as="geometry"/>
                </mxCell>
                <mxCell id="147" value="&lt;b&gt;&lt;font style=&quot;color: rgb(255, 0, 255);&quot;&gt;α&lt;/font&gt;&lt;/b&gt;" style="text;html=1;align=center;verticalAlign=middle;whiteSpace=wrap;rounded=0;" parent="1" vertex="1">
                    <mxGeometry x="320" y="387.5" width="40" height="16.25" as="geometry"/>
                </mxCell>
                <mxCell id="149" value="" style="endArrow=classic;html=1;exitX=1;exitY=0.5;exitDx=0;exitDy=0;strokeColor=#FF00FF;entryX=1;entryY=0.5;entryDx=0;entryDy=0;" parent="1" source="121" target="99" edge="1">
                    <mxGeometry width="50" height="50" relative="1" as="geometry">
                        <mxPoint x="360" y="440" as="sourcePoint"/>
                        <mxPoint x="380" y="405" as="targetPoint"/>
                    </mxGeometry>
                </mxCell>
            </root>
        </mxGraphModel>
    </diagram>
</mxfile>